<svg xmlns="http://www.w3.org/2000/svg" xmlns:xlink="http://www.w3.org/1999/xlink" width="50" height="50" viewBox="0 0 50 50">
    <defs>
        <linearGradient id="tb81hny88b" x1="41.434%" x2="61.483%" y1="0%" y2="86.586%">
            <stop offset="0%" stop-color="#CFCFCF"/>
            <stop offset="100%" stop-color="#A4A4A4"/>
        </linearGradient>
        <rect id="uyxhk4naua" width="50" height="50" x="0" y="0" rx="25"/>
    </defs>
    <g fill="none" fill-rule="evenodd">
        <g>
            <g transform="translate(-20 -94) translate(20 94)">
                <mask id="b9u3w7hu2c" fill="#fff">
                    <use xlink:href="#uyxhk4naua"/>
                </mask>
                <use fill="#E2E2E2" xlink:href="#uyxhk4naua"/>
                <path fill="url(#tb81hny88b)" fill-rule="nonzero" d="M25 32.813c8.198 0 14.844 6.645 14.844 14.843S33.198 62.5 25 62.5s-14.844-6.646-14.844-14.844S16.802 32.813 25 32.813zm0-19.532c4.746 0 8.594 3.848 8.594 8.594 0 4.746-3.848 8.594-8.594 8.594-4.746 0-8.594-3.848-8.594-8.594 0-4.746 3.848-8.594 8.594-8.594z" mask="url(#b9u3w7hu2c)"/>
            </g>
        </g>
    </g>
</svg>
