<?xml version="1.0" standalone="no"?><!DOCTYPE svg PUBLIC "-//W3C//DTD SVG 1.1//EN" "http://www.w3.org/Graphics/SVG/1.1/DTD/svg11.dtd"><svg t="1685602776707" class="icon" viewBox="0 0 1024 1024" version="1.1" xmlns="http://www.w3.org/2000/svg" p-id="10796" xmlns:xlink="http://www.w3.org/1999/xlink" width="200" height="200"><path d="M485.5 655.1H133.3v-50.7c0-18.7-15.2-33.8-33.8-33.8-18.7 0-33.8 15.1-33.8 33.8v298.7c0 31.1 25.2 56.3 56.3 56.3h363.5V655.1zM927.8 570.7c-18.7 0-33.8 15.1-33.8 33.8v50.7H541.8v304.3h363.5c31.1 0 56.3-25.3 56.3-56.3V604.4c-0.1-18.6-15.2-33.7-33.8-33.7" p-id="10797"></path><path d="M671.1 64.5h-315c-55.9 0-101.4 45.5-101.4 101.4v443.5h517.7V165.8C772.5 110 727 64.5 671.1 64.5z m9.7 252.4l-135 161.4c-4.5 5.3-10.9 8.1-17.3 8.1-5.1 0-10.2-1.7-14.4-5.2-9.5-8-10.8-22.2-2.8-31.7l135-161.4c8-9.5 22.1-10.8 31.7-2.8 9.5 7.9 10.7 22.1 2.8 31.6z" p-id="10798"></path></svg>