<?xml version="1.0" standalone="no"?><!DOCTYPE svg PUBLIC "-//W3C//DTD SVG 1.1//EN" "http://www.w3.org/Graphics/SVG/1.1/DTD/svg11.dtd"><svg t="1685601916760" class="icon" viewBox="0 0 1024 1024" version="1.1" xmlns="http://www.w3.org/2000/svg" p-id="8814" xmlns:xlink="http://www.w3.org/1999/xlink" width="200" height="200"><path d="M928 448.2H193.1v-31.8c0-141.4 115.1-256.5 256.5-256.5h1.3l1.5-0.2c1-0.1 9.5-0.6 18.6 1.2 9.1 1.7 12.3 4.6 12.6 5.2 10.7 20.7 14.6 66.1 14.6 89.8l64 0.1c0-7.9-0.5-77.9-21.7-119.1-22.3-43.3-80-41.8-92.1-40.9-85.1 0.3-165.1 33.6-225.4 93.9-60.5 60.5-93.9 141-93.9 226.6v31.8H98V512h30v86.7c0 73.6 47 136.2 112.6 159.5l-55.4 55.4 44.5 44.5 90.3-90.3h382l90.3 90.3 44.5-44.5-54.9-54.9c66.5-22.8 114.2-85.8 114.2-160V512H928v-63.8z" fill="" p-id="8815"></path></svg>