<?xml version="1.0" standalone="no"?><!DOCTYPE svg PUBLIC "-//W3C//DTD SVG 1.1//EN" "http://www.w3.org/Graphics/SVG/1.1/DTD/svg11.dtd"><svg t="1685606297594" class="icon" viewBox="0 0 1024 1024" version="1.1" xmlns="http://www.w3.org/2000/svg" p-id="36340" xmlns:xlink="http://www.w3.org/1999/xlink" width="200" height="200"><path d="M785.36 524.12c-4.41-70-33.98-288.98-43.81-387.33-5.29-28.17-24.3-61.53-59.42-66.5l-46.35-6.07c-9.92 0-104.32 115.55-124.01 137.43 1.31 1.32 1.89 3.27 1.28 5.15l-6.32 19.41a5.095 5.095 0 0 1-6.43 3.27 5.099 5.099 0 0 1-3.27-6.44l6.32-19.41c0.26-0.79 0.73-1.43 1.29-1.98-19.7-21.87-114.1-137.43-124.02-137.43l-46.35 6.07c-35.13 4.97-54.13 38.32-59.42 66.5-9.83 98.35-39.4 317.33-43.81 387.33-0.23 10.46 86.49 23.41 103.16 25.81l-40.71 345.99c0 35.36 25.45 64.3 56.54 64.3h69.24v-7.5c0-2.82 2.29-5.11 5.11-5.11 2.81 0 5.11 2.28 5.11 5.11v7.5h236.88c31.1 0 56.54-28.94 56.54-64.3l-32.55-347.2c27.21-4.12 95.2-15.35 95-24.6z" fill="#000000" p-id="36341"></path><path d="M424.37 702.57c-2.81 0-5.11 2.28-5.11 5.11v20.42c0 2.82 2.29 5.11 5.11 5.11 2.81 0 5.11-2.28 5.11-5.11v-20.42c0-2.83-2.29-5.11-5.11-5.11zM424.37 580.04c-2.81 0-5.11 2.28-5.11 5.11v20.42c0 2.82 2.29 5.11 5.11 5.11 2.81 0 5.11-2.28 5.11-5.11v-20.42c0-2.82-2.29-5.11-5.11-5.11zM424.37 743.41c-2.81 0-5.11 2.28-5.11 5.11v20.42c0 2.82 2.29 5.11 5.11 5.11 2.81 0 5.11-2.28 5.11-5.11v-20.42c0-2.83-2.29-5.11-5.11-5.11zM419.27 503.47v20.42c0 2.82 2.29 5.11 5.11 5.11 2.81 0 5.11-2.28 5.11-5.11v-20.42c0-1.1-0.42-2.07-1.02-2.9h-8.17c-0.61 0.83-1.03 1.79-1.03 2.9zM424.37 661.73c-2.81 0-5.11 2.28-5.11 5.11v20.42c0 2.82 2.29 5.11 5.11 5.11 2.81 0 5.11-2.28 5.11-5.11v-20.42c0-2.83-2.29-5.11-5.11-5.11zM424.37 620.89c-2.81 0-5.11 2.28-5.11 5.11v20.42c0 2.82 2.29 5.11 5.11 5.11 2.81 0 5.11-2.28 5.11-5.11V626c0-2.83-2.29-5.11-5.11-5.11zM424.37 539.2c-2.81 0-5.11 2.28-5.11 5.11v20.42c0 2.82 2.29 5.11 5.11 5.11 2.81 0 5.11-2.28 5.11-5.11v-20.42c0-2.82-2.29-5.11-5.11-5.11zM429.48 952.72c0-2.82-2.29-5.11-5.11-5.11-2.81 0-5.11 2.28-5.11 5.11v7.5h10.21v-7.5zM424.37 906.77c-2.81 0-5.11 2.28-5.11 5.11v20.42c0 2.82 2.29 5.11 5.11 5.11 2.81 0 5.11-2.28 5.11-5.11v-20.42c0-2.82-2.29-5.11-5.11-5.11zM424.37 865.93c-2.81 0-5.11 2.28-5.11 5.11v20.42c0 2.82 2.29 5.11 5.11 5.11 2.81 0 5.11-2.28 5.11-5.11v-20.42c0-2.82-2.29-5.11-5.11-5.11zM424.37 784.25c-2.81 0-5.11 2.28-5.11 5.11v20.42c0 2.82 2.29 5.11 5.11 5.11 2.81 0 5.11-2.28 5.11-5.11v-20.42c0-2.83-2.29-5.11-5.11-5.11zM424.37 825.09c-2.81 0-5.11 2.28-5.11 5.11v20.42c0 2.82 2.29 5.11 5.11 5.11 2.81 0 5.11-2.28 5.11-5.11V830.2c0-2.82-2.29-5.11-5.11-5.11zM475.01 307.17a5.1 5.1 0 0 0 6.43-3.28l6.32-19.42c0.88-2.67-0.58-5.55-3.27-6.43-2.63-0.89-5.54 0.6-6.42 3.28l-6.32 19.42c-0.89 2.67 0.57 5.55 3.26 6.43zM503.35 203.64l-6.32 19.41a5.099 5.099 0 0 0 4.85 6.69c2.15 0 4.15-1.37 4.85-3.52l6.32-19.41c0.62-1.89 0.03-3.84-1.28-5.15-2.08 2.31-3.33 3.59-3.56 3.57-0.23 0.02-1.49-1.26-3.56-3.57-0.57 0.55-1.04 1.19-1.3 1.98zM462.36 346a5.1 5.1 0 0 0 6.43-3.28l6.32-19.42c0.88-2.67-0.58-5.55-3.27-6.43-2.63-0.87-5.54 0.6-6.42 3.28l-6.32 19.42c-0.88 2.67 0.57 5.56 3.26 6.43zM487.65 268.33a5.104 5.104 0 0 0 6.43-3.27l6.32-19.41c0.88-2.68-0.58-5.56-3.27-6.44-2.63-0.86-5.54 0.61-6.42 3.27l-6.32 19.41c-0.89 2.68 0.57 5.56 3.26 6.44zM449.72 384.83a5.104 5.104 0 0 0 6.43-3.27l6.32-19.41c0.88-2.68-0.58-5.56-3.27-6.44-2.63-0.86-5.54 0.61-6.42 3.27l-6.32 19.41c-0.89 2.68 0.57 5.56 3.26 6.44zM437.06 423.67a5.104 5.104 0 0 0 6.43-3.27l6.32-19.41c0.88-2.68-0.58-5.56-3.27-6.44-2.67-0.85-5.54 0.6-6.42 3.27l-6.32 19.41c-0.89 2.68 0.57 5.56 3.26 6.44zM437.16 439.8c0.88-2.67-0.58-5.55-3.27-6.43-2.67-0.88-5.54 0.6-6.42 3.28l-5.92 18.2h10.72l4.89-15.05z" fill="#000000" p-id="36342"></path><path d="M676.93 454.86h-76.65l18.25-31.61c2.34-4.05 0.94-9.27-3.11-11.61l-24.87-14.36c-4.05-2.34-9.27-0.94-11.61 3.11l-31.45 54.47H339.46c-4.67 0-8.5 3.82-8.5 8.5v28.72c0 4.67 3.82 8.5 8.5 8.5h181.65l-12.39 21.46c-2.34 4.05-0.94 9.27 3.11 11.61l24.87 14.36c4.05 2.34 9.27 0.94 11.61-3.11l19.35-33.51v92.44c0 4.67 3.82 8.5 8.5 8.5h28.72c4.67 0 8.5-3.82 8.5-8.5V500.57h63.56c4.67 0 8.5-3.82 8.5-8.5v-28.72c-0.01-4.67-3.84-8.49-8.51-8.49z" fill="#000000" p-id="36343"></path></svg>