<?xml version="1.0" standalone="no"?><!DOCTYPE svg PUBLIC "-//W3C//DTD SVG 1.1//EN" "http://www.w3.org/Graphics/SVG/1.1/DTD/svg11.dtd"><svg t="1685603241118" class="icon" viewBox="0 0 1024 1024" version="1.1" xmlns="http://www.w3.org/2000/svg" p-id="27070" xmlns:xlink="http://www.w3.org/1999/xlink" width="200" height="200"><path d="M909.792 717.976l-88.44-501.56A99.616 99.616 0 0 0 748.8 137.6l-106.64-28-29.896-59.856a13.984 13.984 0 0 0-12.52-7.744H424.256a13.984 13.984 0 0 0-12.52 7.744L381.84 109.6 275.2 137.6a99.616 99.616 0 0 0-72.568 78.816l-88.44 501.6a14.016 14.016 0 0 0 3.872 12.304c2.088 2.104 50.88 49.784 171.536 65.6l-24.24 170.144a14 14 0 0 0 11.88 15.832 12.984 12.984 0 0 0 1.992 0.144 14.008 14.008 0 0 0 13.848-12l57.256-401.856h44.8V968a14 14 0 0 0 28 0V568.12h27.8V968a14 14 0 0 0 28 0V568.12h194.712l57.256 401.856a14.008 14.008 0 0 0 13.848 12 12.984 12.984 0 0 0 1.992-0.144 14 14 0 0 0 11.88-15.832L734.4 795.88c120.648-15.816 169.44-63.496 171.536-65.6a14.016 14.016 0 0 0 3.856-12.304z m-235.84-227.064h-183.12l149.792-352.8 88.672 23.312z m-323.904 0l-55.352-329.488 88.68-23.312 83.144 195.832-66.648 156.968zM512 226.832L445.408 70h133.176z m-15.2 35.824l-15.064 35.464-74.792-176.144 16.256-32.584z m104-173.264l16.28 32.584-156.672 368.936h-30.112zM143.2 714.92l87.04-493.6a71.456 71.456 0 0 1 37.6-50.824l56.376 335.616v47.056L293.6 768.112c-89.288-11.688-135.728-41.84-150.4-53.192z m528.608-174.8h-319.6v-21.208h319.584z m58.632 228l-30.648-214.992v-47.056l56.376-335.616a71.456 71.456 0 0 1 37.6 50.824l87.04 493.6c-14.744 11.432-61.184 41.552-150.408 53.232z" p-id="27071"></path></svg>