<?xml version="1.0" standalone="no"?><!DOCTYPE svg PUBLIC "-//W3C//DTD SVG 1.1//EN" "http://www.w3.org/Graphics/SVG/1.1/DTD/svg11.dtd"><svg t="1685599365931" class="icon" viewBox="0 0 1024 1024" version="1.1" xmlns="http://www.w3.org/2000/svg" p-id="4839" xmlns:xlink="http://www.w3.org/1999/xlink" width="200" height="200"><path d="M116.578377 383.002344c0-53.442977 43.47914-96.924237 96.924236-96.924236h217.571693c33.784596 0 63.572206 17.387415 80.925694 43.669977 17.355609-26.284682 47.141099-43.669977 80.925694-43.669977h217.573813c53.442977 0 96.922116 43.48126 96.922116 96.924236v4.463477h24.263926v-94.515444c0-58.650719-47.715732-106.366451-106.366451-106.366451H198.678782c-58.650719 0-106.366451 47.715732-106.366451 106.366451v94.515444h24.263925v-4.463477zM983.262559 432.72611H40.735321C18.273749 432.72611 0 450.999859 0 473.461431v236.477325c0 22.461572 18.273749 40.735321 40.735321 40.735321h16.95697l-20.035815 56.547266c-4.1751 11.781034 1.993191 24.715574 13.772105 28.888554 2.499971 0.884214 5.050832 1.306177 7.559285 1.306177 9.31499 0 18.042624-5.797219 21.331389-15.080402l25.391987-71.663715H918.288758l25.391987 71.663715c3.288766 9.283183 12.01428 15.080402 21.331389 15.080402 2.508453 0 5.059314-0.421963 7.559285-1.306177 11.781034-4.1751 17.947205-17.10964 13.772105-28.888554l-20.035815-56.547266h16.95697c22.461572 0 40.735321-18.273749 40.735321-40.735321V473.461431c0-22.461572-18.273749-40.735321-40.737441-40.735321z" p-id="4840" fill="#000000"></path><path d="M592.925694 331.340517c-28.485675 0-51.661827 23.174032-51.661826 51.659707v4.463476h320.895345v-4.463476c0-28.485675-23.174032-51.659706-51.659706-51.659707H592.925694zM213.502613 331.340517c-28.487795 0-51.661827 23.176152-51.661826 51.661827v4.461356h320.895345v-4.463476c0-28.485675-23.174032-51.659706-51.661826-51.659707H213.502613z" p-id="4841" fill="#000000"></path></svg>