<?xml version="1.0" standalone="no"?><!DOCTYPE svg PUBLIC "-//W3C//DTD SVG 1.1//EN" "http://www.w3.org/Graphics/SVG/1.1/DTD/svg11.dtd"><svg t="1685670465213" class="icon" viewBox="0 0 1024 1024" version="1.1" xmlns="http://www.w3.org/2000/svg" p-id="3771" xmlns:xlink="http://www.w3.org/1999/xlink" width="200" height="200"><path d="M874.852174 788.034783H373.982609c-11.130435-35.617391-15.582609-71.234783-15.582609-106.852174V351.721739c0-13.356522 8.904348-20.034783 20.034783-20.034782h414.052174c8.904348 0 15.582609-4.452174 17.808695-13.356522l2.226087-4.452174c15.582609-26.713043 20.034783-57.878261 20.034783-86.817391 0-80.13913-64.556522-144.695652-144.695652-144.695653H273.808696c-80.13913 0-144.695652 64.556522-144.695653 144.695653v42.295652c0 28.93913 17.808696 51.2 44.52174 60.104348 11.130435 46.747826 15.582609 100.173913 15.582608 149.147826 0 64.556522-8.904348 131.33913-24.486956 193.669565L133.565217 788.034783h-4.452174c-35.617391 0-62.330435 26.713043-62.330434 62.330434C66.782609 883.756522 93.495652 912.695652 129.113043 912.695652h745.739131c35.617391 0 62.330435-26.713043 62.330435-62.330435 0-35.617391-26.713043-62.330435-62.330435-62.330434zM169.182609 227.06087c0-57.878261 44.521739-104.626087 104.626087-104.626087h414.052174c57.878261 0 104.626087 44.521739 104.626087 104.626087 0 20.034783-4.452174 44.521739-13.356522 62.330434H191.443478c-13.356522 0-20.034783-8.904348-20.034782-20.034782v-42.295652z m35.617391 456.347826c17.808696-66.782609 26.713043-135.791304 26.713043-204.8 0-48.973913-4.452174-100.173913-15.582608-146.921739h102.4c-2.226087 6.678261-4.452174 13.356522-4.452174 20.034782v327.234783c0 35.617391 4.452174 73.46087 15.582609 106.852174H175.86087l28.93913-102.4z m670.052174 186.991304H129.113043c-13.356522 0-20.034783-8.904348-20.034782-20.034783 0-13.356522 8.904348-20.034783 20.034782-20.034782h745.739131c13.356522 0 20.034783 8.904348 20.034783 20.034782s-6.678261 20.034783-20.034783 20.034783z m0 0" fill="#000000" p-id="3772"></path><path d="M917.147826 456.347826H460.8c-13.356522 0-20.034783 8.904348-20.034783 20.034783v164.730434c0 104.626087 82.365217 186.991304 186.991305 186.991305h82.365217c82.365217 0 151.373913-53.426087 175.86087-129.113044h2.226087l48.973913-37.843478c26.713043-17.808696 42.295652-48.973913 42.295652-82.365217v-62.330435c0-33.391304-26.713043-60.104348-62.330435-60.104348z m-62.330435 184.765217c0 80.13913-64.556522 144.695652-144.695652 144.695653h-82.365217c-80.13913 0-144.695652-64.556522-144.695652-144.695653v-144.695652h373.982608v144.695652z m82.365218-60.104347c0 17.808696-8.904348 37.843478-24.486957 48.973913l-15.582609 13.356521v-144.695652h20.034783c13.356522 0 20.034783 8.904348 20.034783 20.034783v62.330435z m0 0" fill="#000000" p-id="3773"></path><path d="M750.191304 311.652174h-164.730434c-13.356522 0-20.034783 8.904348-20.034783 20.034783v144.695652c0 13.356522 8.904348 20.034783 20.034783 20.034782H667.826087c13.356522 0 20.034783-8.904348 20.034783-20.034782v-124.66087h62.330434c13.356522 0 20.034783-8.904348 20.034783-20.034782 2.226087-13.356522-6.678261-20.034783-20.034783-20.034783z m-102.4 144.695652h-42.295652v-104.626087h42.295652v104.626087z m0 0" fill="#000000" p-id="3774"></path></svg>