<?xml version="1.0" standalone="no"?><!DOCTYPE svg PUBLIC "-//W3C//DTD SVG 1.1//EN" "http://www.w3.org/Graphics/SVG/1.1/DTD/svg11.dtd"><svg t="1685670899000" class="icon" viewBox="0 0 1024 1024" version="1.1" xmlns="http://www.w3.org/2000/svg" p-id="9610" xmlns:xlink="http://www.w3.org/1999/xlink" width="200" height="200"><path d="M512 640H128v277.333333a21.333333 21.333333 0 0 1-42.666667 0V127.829333C85.333333 104.362667 104.384 85.333333 127.850667 85.333333h362.922666A63.936 63.936 0 0 1 554.666667 149.12V192h320.128A63.936 63.936 0 0 1 938.666667 255.786667v427.093333A63.872 63.872 0 0 1 874.794667 746.666667H575.872A63.936 63.936 0 0 1 512 682.88V640zM128 128v469.333333h384V149.12a21.269333 21.269333 0 0 0-21.226667-21.12H128z m746.794667 106.666667H554.666667v448.213333c0 11.562667 9.557333 21.12 21.205333 21.12h298.922667a21.205333 21.205333 0 0 0 21.205333-21.12V255.786667a21.269333 21.269333 0 0 0-21.205333-21.12z" fill="#B15A1F" p-id="9611"></path></svg>