<?xml version="1.0" standalone="no"?><!DOCTYPE svg PUBLIC "-//W3C//DTD SVG 1.1//EN" "http://www.w3.org/Graphics/SVG/1.1/DTD/svg11.dtd"><svg t="1685603107707" class="icon" viewBox="0 0 1024 1024" version="1.1" xmlns="http://www.w3.org/2000/svg" p-id="26103" xmlns:xlink="http://www.w3.org/1999/xlink" width="200" height="200"><path d="M381.082 65.747h387.069c39.609 0 72.01 32.415 72.01 72.024V917.96h-35.723v21.399c0 12.353-10.115 22.466-22.466 22.466h-53.904c-12.353 0-22.453-10.113-22.453-22.466V917.96H438.337v21.399c0 12.353-10.1 22.466-22.451 22.466h-53.904c-12.353 0-22.466-10.113-22.466-22.466V917.96h-30.444V137.771c0-39.608 32.402-72.024 72.01-72.024z m193.46 67.057c-37.073 0-70.616 15.036-94.906 39.326-24.29 24.276-39.326 57.834-39.326 94.906 0 37.057 15.036 70.616 39.326 94.906 24.29 24.29 57.834 39.312 94.906 39.312s70.616-15.023 94.906-39.312c24.275-24.29 39.313-57.849 39.313-94.906 0-37.073-15.038-70.63-39.313-94.906-24.289-24.289-57.833-39.326-94.906-39.326z m0 403.129c-59.138 0-107.066 47.944-107.066 107.066 0 59.138 47.928 107.082 107.066 107.082s107.051-47.944 107.051-107.082c0.001-59.122-47.913-107.066-107.051-107.066z m0-94.091c-55.55 0-105.835 22.525-142.241 58.916-36.42 36.406-58.93 86.706-58.93 142.241 0 55.565 22.51 105.85 58.93 142.256 36.391 36.405 86.691 58.916 142.241 58.916s105.835-22.512 142.241-58.916c36.406-36.406 58.916-86.691 58.916-142.256 0-55.535-22.51-105.835-58.916-142.241-36.406-36.391-86.691-58.916-142.241-58.916z m121.288 79.885c-31.052-31.038-73.937-50.226-121.287-50.226-47.364 0-90.251 19.188-121.287 50.226-31.037 31.037-50.226 73.922-50.226 121.272 0 47.379 19.189 90.251 50.226 121.287 31.037 31.038 73.924 50.241 121.287 50.241 47.35 0 90.235-19.203 121.287-50.241 31.023-31.037 50.226-73.909 50.226-121.287 0-47.35-19.203-90.235-50.226-121.272zM574.542 206.194c-33.603 0-60.843 27.24-60.843 60.843 0 33.588 27.24 60.845 60.843 60.845s60.83-27.257 60.83-60.845c0-33.603-27.227-60.843-60.83-60.843z m73.938-13.11c-18.92-18.922-45.065-30.607-73.937-30.607-28.873 0-55.015 11.685-73.937 30.607-18.922 18.922-30.637 45.066-30.637 73.953 0 28.873 11.715 55.017 30.637 73.939 18.922 18.922 45.065 30.636 73.937 30.636 28.873 0 55.017-11.714 73.937-30.636 18.922-18.922 30.622-45.066 30.622-73.939 0-28.887-11.7-55.031-30.622-73.953z" fill="#231815" p-id="26104"></path></svg>