<?xml version="1.0" standalone="no"?><!DOCTYPE svg PUBLIC "-//W3C//DTD SVG 1.1//EN" "http://www.w3.org/Graphics/SVG/1.1/DTD/svg11.dtd"><svg t="1685607567486" class="icon" viewBox="0 0 1024 1024" version="1.1" xmlns="http://www.w3.org/2000/svg" p-id="38776" xmlns:xlink="http://www.w3.org/1999/xlink" width="200" height="200"><path d="M56.1 71.3m-27.8 0a27.8 27.8 0 1 0 55.6 0 27.8 27.8 0 1 0-55.6 0Z" fill="#000000" p-id="38777"></path><path d="M56.1 104.4C37.8 104.4 23 89.5 23 71.3S37.8 38 56.1 38s33.1 14.9 33.1 33.1-14.7 33.3-33.1 33.3z m0-55.6c-12.4 0-22.5 10-22.5 22.5s10 22.5 22.5 22.5 22.5-10 22.5-22.5-10-22.5-22.5-22.5z" fill="#000000" p-id="38778"></path><path d="M776.9 71.3m-27.8 0a27.8 27.8 0 1 0 55.6 0 27.8 27.8 0 1 0-55.6 0Z" fill="#000000" p-id="38779"></path><path d="M776.9 104.4c-18.3 0-33.1-14.9-33.1-33.1S758.6 38 776.9 38 810 52.9 810 71.2s-14.8 33.2-33.1 33.2z m0-55.6c-12.4 0-22.5 10-22.5 22.5s10 22.5 22.5 22.5c12.4 0 22.5-10 22.5-22.5s-10.1-22.5-22.5-22.5z" fill="#000000" p-id="38780"></path><path d="M764.6 889.4H547.4c0 17.3 14.9 31.4 33.1 31.4h150.8c18.4 0 33.3-14 33.3-31.4z" fill="#000000" p-id="38781"></path><path d="M759.4 889.4H554.1v-21.7c0-5.4 4.2-9.6 9.6-9.6h186.2c5.4 0 9.6 4.2 9.6 9.6v21.7z" fill="#000000" p-id="38782"></path><path d="M992.8 988.9H240.7c-3 0-5.4-2.4-5.4-5.4 0-3 2.4-5.4 5.4-5.4h752.1c3 0 5.4 2.4 5.4 5.4 0 3-2.4 5.4-5.4 5.4zM178 988.9H52.7c-3 0-5.4-2.4-5.4-5.4 0-3 2.4-5.4 5.4-5.4h125.2c3 0 5.4 2.4 5.4 5.4 0 3-2.3 5.4-5.3 5.4zM209.3 988.9c-0.3 0-0.7 0-1-0.1l-0.9-0.3c-0.3-0.1-0.6-0.3-0.9-0.5-0.3-0.2-0.5-0.4-0.8-0.6-0.2-0.2-0.4-0.5-0.6-0.8-0.2-0.3-0.3-0.6-0.5-0.9l-0.3-0.9c-0.1-0.3-0.1-0.7-0.1-1 0-0.3 0-0.7 0.1-1l0.3-0.9c0.1-0.3 0.3-0.6 0.5-0.9s0.4-0.5 0.6-0.8c0.2-0.2 0.5-0.4 0.8-0.6 0.3-0.2 0.6-0.3 0.9-0.5l0.9-0.3c0.6-0.1 1.3-0.1 2.2 0l0.9 0.3c0.3 0.1 0.6 0.3 0.9 0.5 0.3 0.2 0.5 0.4 0.8 0.6 0.2 0.2 0.4 0.5 0.6 0.8 0.2 0.3 0.3 0.6 0.5 0.9l0.3 0.9c0.1 0.3 0.1 0.7 0.1 1 0 0.3 0 0.7-0.1 1l-0.3 0.9c-0.1 0.3-0.3 0.6-0.5 0.9-0.2 0.3-0.4 0.5-0.6 0.8-0.2 0.2-0.5 0.4-0.8 0.6-0.3 0.2-0.6 0.3-0.9 0.5l-0.9 0.3c-0.6 0.1-0.9 0.1-1.2 0.1z" fill="#000000" p-id="38783"></path><path d="M776.9 447.3h62.7v94.1h-62.7z" fill="#000000" p-id="38784"></path><path d="M839.6 546.6h-62.7c-3 0-5.4-2.4-5.4-5.4v-94.1c0-3 2.4-5.4 5.4-5.4h62.7c3 0 5.4 2.4 5.4 5.4v94.1c-0.1 3.1-2.4 5.4-5.4 5.4zM782.3 536h51.9v-83.3h-52V536h0.1zM735.1 922.6H578.4c-20.2 0-36.7-16.5-36.7-36.7 0-9.7 3.8-18.9 10.8-25.9 6.9-6.9 16.1-10.8 25.9-10.8h0.5l32 3c28.4 2.7 57.1 2.8 85.5 0.3l38.2-3.3h0.4c14.5 0 27.6 8.6 33.6 21.8 2.1 4.6 3.1 9.7 3.1 14.9 0 9.7-3.8 18.9-10.8 25.9-6.9 7-16.1 10.8-25.8 10.8z m-156.9-62.7c-6.8 0.1-13.2 2.8-18.1 7.6-5 5-7.6 11.5-7.6 18.4 0 14.4 11.7 26 26 26h156.6c6.9 0 13.5-2.7 18.4-7.6 5-5 7.6-11.5 7.6-18.4 0-3.6-0.7-7.2-2.3-10.6-4.1-9.3-13.4-15.3-23.5-15.4l-38 3.3c-29 2.5-58.4 2.4-87.5-0.3l-31.6-3z" fill="#000000" p-id="38785"></path><path d="M714.2 980H515.8v-26.6c0-19.9 16.1-36 36-36h209.9c19.9 0 36 16.1 36 36V980h-83.5z" fill="#000000" p-id="38786"></path><path d="M797.7 985.3h-282c-3 0-5.4-2.4-5.4-5.4v-26.6c0-22.8 18.6-41.4 41.4-41.4h209.9c22.8 0 41.4 18.6 41.4 41.4v26.6c0.1 3.1-2.3 5.4-5.3 5.4z m-276.6-10.7h271.3v-21.3c0-16.9-13.8-30.7-30.7-30.7h-210c-16.9 0-30.7 13.8-30.7 30.7v21.3h0.1z" fill="#000000" p-id="38787"></path><path d="M902.2 541.3V980H797.7v-26.6c0-19.9-16.1-36-36-36h-26.6c8.7 0 16.5-3.5 22.1-9.2 5.7-5.7 9.2-13.5 9.2-22.1 0-4.5-0.9-8.9-2.7-12.7-5-11-15.8-18.6-28.7-18.6l-20.9 1.9V541.3H902.2z" fill="#000000" p-id="38788"></path><path d="M902.2 985.4H797.7c-3 0-5.4-2.4-5.4-5.4v-26.6c0-16.9-13.8-30.7-30.7-30.7H735c-3 0-5.4-2.4-5.4-5.4 0-3 2.4-5.4 5.4-5.4 6.9 0 13.5-2.7 18.4-7.6 5-5 7.6-11.5 7.6-18.4 0-3.6-0.7-7.2-2.3-10.6-4.1-9.3-13.4-15.3-23.5-15.4l-20.7 1.9c-1.5 0.1-3-0.3-4-1.3-1-0.9-1.8-2.5-1.8-3.9V541.3c0-3 2.4-5.4 5.4-5.4h188.1c3 0 5.4 2.4 5.4 5.4V980c0 3.1-2.4 5.4-5.4 5.4z m-99.1-10.7H897V546.6H719.6v304l15.1-1.2h0.4c14.5 0 27.6 8.6 33.6 21.8 2.1 4.6 3.1 9.7 3.1 14.9 0 9.7-3.8 18.9-10.8 25.9l-0.1 0.1h0.7c22.8 0 41.4 18.6 41.4 41.4v21.3l0.1-0.1zM808.3 452.6c-3 0-5.4-2.4-5.4-5.4V388c0-3 2.4-5.4 5.4-5.4 3 0 5.4 2.4 5.4 5.4v59.2c-0.2 3.1-2.4 5.4-5.4 5.4z" fill="#000000" p-id="38789"></path><path d="M839.6 385.5h-62.7v-0.4c0-17.1 13.8-30.9 30.9-30.9h0.8c17.1 0 30.9 13.8 30.9 30.9l0.1 0.4z" fill="#000000" p-id="38790"></path><path d="M839.6 390.8h-62.7c-3 0-5.4-2.4-5.4-5.4v-0.4c0-20 16.2-36.2 36.2-36.2h0.8c20 0 36.2 16.2 36.2 36.2v0.4c0.2 3.1-2.1 5.4-5.1 5.4z m-56.9-10.7h51c-2.4-11.8-12.7-20.7-25.1-20.7h-0.8c-12.4 0.1-22.8 8.9-25.1 20.7z" fill="#000000" p-id="38791"></path><path d="M776.9 375.1h-41.8c-3 0-5.4-2.4-5.4-5.4 0-3 2.4-5.4 5.4-5.4h41.8c3 0 5.4 2.4 5.4 5.4 0 3.1-2.4 5.4-5.4 5.4z" fill="#000000" p-id="38792"></path><path d="M255.5 835c18.5-5 39.1-0.1 53.7 14.5s19.4 35.2 14.5 53.7c-18.5 5-39.1 0.1-53.7-14.5-14.6-14.4-19.5-35.1-14.5-53.7z" fill="#000000" p-id="38793"></path><path d="M323.6 908.5c-0.4 0-0.9-0.1-1.3-0.2-2.9-0.7-4.6-3.6-3.7-6.5 4.6-17.3-0.4-35.9-13-48.5s-31.3-17.7-48.5-13c-2.9 0.7-5.8-0.9-6.5-3.7-0.7-2.9 0.9-5.8 3.7-6.5 21-5.6 43.6 0.5 58.9 15.8 15.3 15.3 21.4 37.9 15.8 58.9-0.9 2.1-3 3.7-5.4 3.7z" fill="#000000" p-id="38794"></path><path d="M309.5 910.4c-16 0-31.7-6.3-43.3-17.9-15.3-15.3-21.4-37.9-15.8-58.9 0.7-2.9 3.7-4.6 6.5-3.7 2.9 0.7 4.6 3.6 3.7 6.5-4.6 17.3 0.4 35.9 13 48.5s31.3 17.7 48.5 13c2.9-0.7 5.8 0.9 6.5 3.7 0.7 2.8-0.9 5.8-3.7 6.5-4.9 1.7-10.2 2.3-15.4 2.3z" fill="#000000" p-id="38795"></path><path d="M384.4 888.6c-14.6 14.6-35.2 19.4-53.7 14.5-5.1-18.5-0.2-39.2 14.4-53.8s35.2-19.4 53.7-14.4c5 18.5 0.2 39.2-14.4 53.7z" fill="#000000" p-id="38796"></path><path d="M345 910.2c-5.3 0-10.5-0.6-15.6-2.1-2.9-0.7-4.6-3.6-3.7-6.5 0.7-2.9 3.7-4.6 6.5-3.7 17.3 4.6 35.9-0.4 48.5-13 12.7-12.7 17.7-31.3 12.9-48.5-0.7-2.9 0.8-5.8 3.7-6.5s5.8 0.8 6.5 3.7c5.7 21-0.3 43.6-15.7 58.9-11.4 11.5-27.1 17.7-43.1 17.7z" fill="#000000" p-id="38797"></path><path d="M330.7 908.3c-2.4 0-4.5-1.7-5.2-3.9-5.7-21 0.3-43.7 15.7-59 15.4-15.4 38-21.4 58.9-15.7 2.9 0.7 4.5 3.7 3.7 6.5-0.7 2.9-3.7 4.5-6.5 3.7-17.2-4.7-35.8 0.3-48.5 12.9-12.7 12.7-17.7 31.4-12.9 48.6 0.7 2.9-0.8 5.8-3.7 6.5-0.4 0.3-1 0.4-1.5 0.4z" fill="#000000" p-id="38798"></path><path d="M327.3 988.9c-3 0-5.4-2.4-5.4-5.4v-80.4c0-3 2.4-5.4 5.4-5.4 3 0 5.4 2.4 5.4 5.4v80.4c0 3-2.4 5.4-5.4 5.4z" fill="#000000" p-id="38799"></path><path d="M919.6 208.9c-3 0-5.4-2.4-5.4-5.4v-13.9c0-3 2.4-5.4 5.4-5.4s5.4 2.4 5.4 5.4v13.9c-0.1 3-2.4 5.4-5.4 5.4zM961.9 184.5c-0.8 0-1.9-0.2-2.7-0.7l-12.1-6.9c-2.6-1.5-3.4-4.7-2-7.2 1.5-2.6 4.7-3.4 7.2-2l12.1 6.9c2.6 1.5 3.4 4.7 2 7.2-0.9 1.8-2.7 2.7-4.5 2.7zM949.7 142.7c-1.9 0-3.6-0.9-4.6-2.7-1.5-2.6-0.6-5.9 2-7.2l12.1-6.9c2.6-1.5 5.9-0.6 7.2 2 1.5 2.6 0.6 5.9-2 7.2l-12.1 6.9c-0.7 0.5-1.5 0.7-2.6 0.7zM919.6 125.4c-3 0-5.4-2.4-5.4-5.4v-14c0-3 2.4-5.4 5.4-5.4s5.4 2.4 5.4 5.4v14c-0.1 3-2.4 5.4-5.4 5.4zM889.4 142.7c-0.9 0-1.9-0.2-2.7-0.7l-12-6.9c-2.6-1.5-3.4-4.7-2-7.2 1.5-2.6 4.7-3.4 7.2-2l12 6.9c2.6 1.5 3.4 4.7 2 7.2-0.9 1.7-2.6 2.7-4.5 2.7zM877.5 184.5c-1.9 0-3.6-0.9-4.6-2.7-1.5-2.6-0.6-5.8 2-7.2l12-6.9c2.6-1.5 5.8-0.6 7.2 2 1.5 2.6 0.6 5.8-2 7.2l-12 6.9c-0.8 0.5-1.7 0.7-2.6 0.7z" fill="#000000" p-id="38800"></path><path d="M949.2 393.3c-11.6 0-21-9.4-21-21s9.4-21 21-21 21 9.4 21 21-9.4 21-21 21z m0-31.2c-5.7 0-10.2 4.6-10.2 10.2 0 5.7 4.6 10.2 10.2 10.2s10.2-4.6 10.2-10.2c0.1-5.6-4.5-10.2-10.2-10.2z" fill="#000000" p-id="38801"></path><path d="M99.7 863.4c-3 0-5.4-2.4-5.4-5.4v-31.4c0-3 2.4-5.4 5.4-5.4 3 0 5.4 2.4 5.4 5.4V858c-0.1 3-2.4 5.4-5.4 5.4z" fill="#000000" p-id="38802"></path><path d="M115.4 847.8H84.1c-3 0-5.4-2.4-5.4-5.4s2.4-5.4 5.4-5.4h31.4c3 0 5.4 2.4 5.4 5.4-0.2 3.1-2.5 5.4-5.5 5.4z" fill="#000000" p-id="38803"></path><path d="M769 607.5h83.5v219.3H769z" fill="#000000" p-id="38804"></path><path d="M747.576 764.51l110.732-110.732 15.627 15.627-110.732 110.732z" fill="#000000" p-id="38805"></path><path d="M679.4 89.8v482.8h-55.8V71.3h51.9c2.6 5.7 3.9 12 3.9 18.5z" fill="#000000" p-id="38806"></path><path d="M675.6 71.3h-51.9V44c2.7-0.4 5.4-0.7 8.2-0.7h1.1c19.1 0.1 35.4 11.6 42.6 28zM623.7 71.3v501.3h-38.3V89.8c0-6.6 1.3-12.8 3.8-18.5h34.5zM623.7 44v27.2h-34.5c6.2-14 19-24.4 34.5-27.2z" fill="#000000" p-id="38807"></path><path d="M623.7 43.4v0.7c-15.5 2.8-28.4 13.1-34.5 27.2h-3.8V43.5l38.3-0.1z" fill="#000000" p-id="38808"></path><path d="M585.4 572.6v191.5H153.7V89.8c0-6.6 1.3-12.8 3.8-18.5h427.9v501.3z" fill="#000000" p-id="38809"></path><path d="M585.4 43.4v27.8H157.6c7.1-16.4 23.5-27.8 42.5-27.8h385.3z" fill="#000000" p-id="38810"></path><path d="M590.7 769.5H148.4V89.8c0-7.1 1.5-14.1 4.2-20.7 8.3-18.8 26.8-31 47.5-31h385.3v10.7H200.1c-16.4 0-31.2 9.6-37.7 24.6-2.3 5.3-3.4 10.7-3.4 16.4v668.9h421V572.6h10.7v196.9z" fill="#000000" p-id="38811"></path><path d="M590.7 89.8H580V38h49v6h-5.3v4.8h-33z" fill="#000000" p-id="38812"></path><path d="M684.8 577.9H580V89.8c0-7.1 1.5-14.1 4.2-20.7 6.9-15.9 21.3-27.3 38.4-30.3 2.5-0.4 5.7-0.8 9.1-0.8h1.1c20.7 0.1 39.2 12.3 47.5 31.2 2.8 6.5 4.2 13.6 4.2 20.7V578h0.3z m-94.1-10.7H674V89.8c0-5.6-1.1-11.3-3.4-16.4-6.5-14.9-21.3-24.6-37.7-24.7h-1.1c-2.7 0-5.4 0.3-7.2 0.6-13.5 2.5-24.9 11.5-30.4 24.1-2.3 5.3-3.4 10.7-3.4 16.4v477.4h-0.1z" fill="#000000" p-id="38813"></path><path d="M773.4 76.5H589.3c-3 0-5.4-2.4-5.4-5.4s2.4-5.4 5.4-5.4h184.1c3 0 5.4 2.4 5.4 5.4s-2.4 5.4-5.4 5.4zM157.6 76.5H59.7c-3 0-5.4-2.4-5.4-5.4s2.4-5.3 5.4-5.3h97.9c3 0 5.4 2.4 5.4 5.4s-2.4 5.3-5.4 5.3z" fill="#000000" p-id="38814"></path><path d="M153.7 481.2h431.8v94.1H153.7z" fill="#000000" p-id="38815"></path><path d="M590.8 580.6H148.4V475.8h442.5v104.8h-0.1zM159 569.9h421.2v-83.3H159v83.3z" fill="#000000" p-id="38816"></path><path d="M215.8 542.2m-6.9 0a6.9 6.9 0 1 0 13.8 0 6.9 6.9 0 1 0-13.8 0Z" fill="#000000" p-id="38817"></path><path d="M188.9 514.2m-6.9 0a6.9 6.9 0 1 0 13.8 0 6.9 6.9 0 1 0-13.8 0Z" fill="#000000" p-id="38818"></path><path d="M242.9 514.2m-6.9 0a6.9 6.9 0 1 0 13.8 0 6.9 6.9 0 1 0-13.8 0Z" fill="#000000" p-id="38819"></path><path d="M316.9 514.2m-6.9 0a6.9 6.9 0 1 0 13.8 0 6.9 6.9 0 1 0-13.8 0Z" fill="#000000" p-id="38820"></path><path d="M289.9 542.2m-6.9 0a6.9 6.9 0 1 0 13.8 0 6.9 6.9 0 1 0-13.8 0Z" fill="#000000" p-id="38821"></path><path d="M343.9 542.2m-6.9 0a6.9 6.9 0 1 0 13.8 0 6.9 6.9 0 1 0-13.8 0Z" fill="#000000" p-id="38822"></path><path d="M417.9 542.2m-6.9 0a6.9 6.9 0 1 0 13.8 0 6.9 6.9 0 1 0-13.8 0Z" fill="#000000" p-id="38823"></path><path d="M390.9 514.2m-6.9 0a6.9 6.9 0 1 0 13.8 0 6.9 6.9 0 1 0-13.8 0Z" fill="#000000" p-id="38824"></path><path d="M444.8 514.2m-6.9 0a6.9 6.9 0 1 0 13.8 0 6.9 6.9 0 1 0-13.8 0Z" fill="#000000" p-id="38825"></path><path d="M518.9 514.2m-6.9 0a6.9 6.9 0 1 0 13.8 0 6.9 6.9 0 1 0-13.8 0Z" fill="#000000" p-id="38826"></path><path d="M491.8 542.2m-6.9 0a6.9 6.9 0 1 0 13.8 0 6.9 6.9 0 1 0-13.8 0Z" fill="#000000" p-id="38827"></path><path d="M545.8 542.2m-6.9 0a6.9 6.9 0 1 0 13.8 0 6.9 6.9 0 1 0-13.8 0Z" fill="#000000" p-id="38828"></path><path d="M609.8 947.4h-31.4c-1.1 0-2.2-0.9-2.2-2.2 0-1.1 0.9-2.2 2.2-2.2h31.4c1.1 0 2.2 0.9 2.2 2.2-0.1 1.1-1 2.2-2.2 2.2z" fill="#000000" p-id="38829"></path><path d="M554.1 945.2m-6.9 0a6.9 6.9 0 1 0 13.8 0 6.9 6.9 0 1 0-13.8 0Z" fill="#000000" p-id="38830"></path><path d="M766.4 264.2c0-4.6 3.7-8.4 8.4-8.4 3.4 0 6.6-2.4 7.2-5.8 0.7-4.3-2.7-8.2-6.8-8.2h-0.3c-4.6 0-8.4-3.7-8.4-8.4 0-3.4-2.4-6.6-5.8-7.2-4.3-0.7-8.2 2.7-8.2 6.8v0.3c0 4.6-3.7 8.4-8.4 8.4-3.4 0-6.6 2.4-7.2 5.8-0.7 4.3 2.7 8.2 6.8 8.2h0.3c4.6 0 8.4 3.7 8.4 8.4v0.3c0 4.2 3.7 7.6 8.2 6.8 3.5-0.4 5.8-3.6 5.8-7z" fill="#000000" p-id="38831"></path></svg>