<?xml version="1.0" standalone="no"?><!DOCTYPE svg PUBLIC "-//W3C//DTD SVG 1.1//EN" "http://www.w3.org/Graphics/SVG/1.1/DTD/svg11.dtd"><svg t="1685605865414" class="icon" viewBox="0 0 1024 1024" version="1.1" xmlns="http://www.w3.org/2000/svg" p-id="30117" xmlns:xlink="http://www.w3.org/1999/xlink" width="200" height="200"><path d="M128 213.333333h768a42.666667 42.666667 0 0 1 42.666667 42.666667v469.333333a42.666667 42.666667 0 0 1-42.666667 42.666667H128a42.666667 42.666667 0 0 1-42.666667-42.666667V256a42.666667 42.666667 0 0 1 42.666667-42.666667z m282.965333 216.149334h59.733334V385.877333H300.16v43.605334h59.733333V597.333333h51.072v-167.850666zM637.226667 597.333333l81.536-211.456h-56.448l-48.682667 149.930667h-1.194667l-48.981333-149.930667h-57.344L586.154667 597.333333h51.072z" fill="#000000" p-id="30118"></path><path d="M128 810.666667m21.333333 0l725.333334 0q21.333333 0 21.333333 21.333333l0 0q0 21.333333-21.333333 21.333333l-725.333334 0q-21.333333 0-21.333333-21.333333l0 0q0-21.333333 21.333333-21.333333Z" fill="#000000" opacity=".3" p-id="30119"></path></svg>