<?xml version="1.0" standalone="no"?><!DOCTYPE svg PUBLIC "-//W3C//DTD SVG 1.1//EN" "http://www.w3.org/Graphics/SVG/1.1/DTD/svg11.dtd"><svg t="1686301066938" class="icon" viewBox="0 0 1159 1024" version="1.1" xmlns="http://www.w3.org/2000/svg" p-id="5838" xmlns:xlink="http://www.w3.org/1999/xlink" width="226.3671875" height="200"><path d="M0 985.360933h1159.172015v38.639067H0zM579.586007 888.763265h444.349273v-38.639067H760.803232A444.349272 444.349272 0 1 0 579.586007 888.763265z m0-850.059477A405.710205 405.710205 0 1 1 173.875802 444.413993 405.710205 405.710205 0 0 1 579.586007 38.703788z" fill="#000000" p-id="5839"></path><path d="M569.926241 345.691176a115.917201 115.917201 0 1 0-81.914823-33.809184 115.917201 115.917201 0 0 0 81.914823 33.809184z m-54.674281-170.398286a77.278134 77.278134 0 1 1 0 109.155365 77.278134 77.278134 0 0 1 0-109.155365zM712.118008 535.988582a115.917201 115.917201 0 1 0 0-163.829645 115.917201 115.917201 0 0 0 0 163.829645z m27.433737-136.589103a77.278134 77.278134 0 1 1-22.603854 54.67428 77.278134 77.278134 0 0 1 22.603854-54.67428zM427.734473 535.988582a115.917201 115.917201 0 1 0-82.108017 34.002379 115.917201 115.917201 0 0 0 82.108017-34.002379z m-159.386152-81.914823a77.278134 77.278134 0 1 1 22.603855 54.674281 77.278134 77.278134 0 0 1-22.603855-54.674281zM569.926241 562.456343a115.917201 115.917201 0 1 0 81.914822 33.809184 115.917201 115.917201 0 0 0-81.914822-33.809184z m54.67428 170.398286a77.278134 77.278134 0 1 1 0-109.155365 77.278134 77.278134 0 0 1 0 109.155365z" fill="#000000" p-id="5840"></path></svg>